<?xml version="1.0" encoding="UTF-8" standalone="no"?>
<!DOCTYPE svg PUBLIC "-//W3C//DTD SVG 1.0//EN"
 "http://www.w3.org/TR/2001/REC-SVG-20010904/DTD/svg10.dtd" [
 <!ATTLIST svg xmlns:xlink CDATA #FIXED "http://www.w3.org/1999/xlink">
]>
<!-- Generated by Graphviz version 2.12 (Wed Nov 23 19:29:33 UTC 2011)
     For user: (maintenr)  -->
<!-- Title: G Pages: 1 -->
<svg width="3.60in" height="2.95in"
 xmlns="http://www.w3.org/2000/svg" xmlns:xlink="http://www.w3.org/1999/xlink">
<g id="graph0" class="graph" transform="scale(1.33333 1.33333) rotate(0) translate(4 209)">
<title>G</title>
<polygon style="fill:white;stroke:white;" points="-4,4 -4,-209 256,-209 256,4 -4,4"/>
<g id="cluster2" class="cluster"><title>cluster_Captcha</title>
<polyline style="fill:none;stroke:gray;" points="140,-16 12,-16 "/>
<path style="fill:none;stroke:gray;" d="M12,-16C6,-16 5.34125e-315,-10 5.34125e-315,-4"/>
<polyline style="fill:none;stroke:gray;" points="5.34125e-315,-4 5.34125e-315,-12 "/>
<path style="fill:none;stroke:gray;" d="M5.34125e-315,-12C5.34125e-315,-6 6,-7.75834e-308 12,-7.75834e-308"/>
<polyline style="fill:none;stroke:gray;" points="12,-7.75834e-308 140,-7.75834e-308 "/>
<path style="fill:none;stroke:gray;" d="M140,-7.75834e-308C146,-7.75834e-308 152,-6 152,-12"/>
<polyline style="fill:none;stroke:gray;" points="152,-12 152,-4 "/>
<path style="fill:none;stroke:gray;" d="M152,-4C152,-10 146,-16 140,-16"/>
<text text-anchor="middle" x="198" y="-183" style="font-family:Nimbus Roman No9 L;font-weight:regular;font-size:8.91pt;fill:gray;">Captcha</text>
</g>
<!-- \\Captcha\\Captcha -->
<g id="node2" class="node"><title>\\Captcha\\Captcha</title>
<a xlink:href="Captcha.html" xlink:title="Captcha" target="_parent">
<polygon style="fill:none;stroke:black;" points="229.096,-168 166.904,-168 166.904,-132 229.096,-132 229.096,-168"/>
<text text-anchor="middle" x="198" y="-146" style="font-family:Nimbus Mono L;font-weight:regular;font-size:8.91pt;">Captcha</text>
</a>
</g>
<!-- \\Captcha\\Response -->
<g id="node3" class="node"><title>\\Captcha\\Response</title>
<a xlink:href="Response.html" xlink:title="Response" target="_parent">
<polygon style="fill:none;stroke:black;" points="231.897,-114 164.103,-114 164.103,-78 231.897,-78 231.897,-114"/>
<text text-anchor="middle" x="198" y="-92" style="font-family:Nimbus Mono L;font-weight:regular;font-size:8.91pt;">Response</text>
</a>
</g>
<!-- \\Captcha\\Exception -->
<g id="node4" class="node"><title>\\Captcha\\Exception</title>
<a xlink:href="Exception.html" xlink:title="Exception" target="_parent">
<polygon style="fill:none;stroke:black;" points="235.192,-60 160.808,-60 160.808,-24 235.192,-24 235.192,-60"/>
<text text-anchor="middle" x="198" y="-38" style="font-family:Nimbus Mono L;font-weight:regular;font-size:8.91pt;">Exception</text>
</a>
</g>
<!-- \\Exception -->
<g id="node6" class="node"><title>\\Exception</title>
<ellipse style="fill:none;stroke:black;" cx="44" cy="-42" rx="42.9635" ry="18"/>
<text text-anchor="middle" x="44" y="-36" style="font-family:Nimbus Roman No9 L;font-weight:regular;font-size:11.34pt;fill:gray;">\Exception</text>
</g>
<!-- \\Captcha\\Exception&#45;&gt;\\Exception -->
<g id="edge3" class="edge"><title>\\Captcha\\Exception&#45;&gt;\\Exception</title>
<path style="fill:none;stroke:black;" d="M160,-42C141,-42 119,-42 98,-42"/>
<polygon style="fill:none;stroke:black;" points="98,-38.5001 88,-42 98,-45.5001 98,-38.5001"/>
</g>
</g>
</svg>
