<?xml version="1.0" encoding="UTF-8" standalone="no"?>
<!DOCTYPE svg PUBLIC "-//W3C//DTD SVG 1.0//EN"
 "http://www.w3.org/TR/2001/REC-SVG-20010904/DTD/svg10.dtd" [
 <!ATTLIST svg xmlns:xlink CDATA #FIXED "http://www.w3.org/1999/xlink">
]>
<!-- Generated by Graphviz version 2.12 (Wed Nov 23 19:29:33 UTC 2011)
     For user: (root) root -->
<!-- Title: G Pages: 1 -->
<svg width="3.72in" height="3.35in"
 xmlns="http://www.w3.org/2000/svg" xmlns:xlink="http://www.w3.org/1999/xlink">
<g id="graph0" class="graph" transform="scale(1.33333 1.33333) rotate(0) translate(4 238)">
<title>G</title>
<polygon style="fill:white;stroke:white;" points="-4,4 -4,-238 264,-238 264,4 -4,4"/>
<g id="cluster2" class="cluster"><title>cluster_Library</title>
<polyline style="fill:none;stroke:gray;" points="132,-16 12,-16 "/>
<path style="fill:none;stroke:gray;" d="M12,-16C6,-16 5.34142e-315,-10 5.34142e-315,-4"/>
<polyline style="fill:none;stroke:gray;" points="5.34142e-315,-4 5.34142e-315,-12 "/>
<path style="fill:none;stroke:gray;" d="M5.34142e-315,-12C5.34142e-315,-6 6,-7.75834e-308 12,-7.75834e-308"/>
<polyline style="fill:none;stroke:gray;" points="12,-7.75834e-308 132,-7.75834e-308 "/>
<path style="fill:none;stroke:gray;" d="M132,-7.75834e-308C138,-7.75834e-308 144,-6 144,-12"/>
<polyline style="fill:none;stroke:gray;" points="144,-12 144,-4 "/>
<path style="fill:none;stroke:gray;" d="M144,-4C144,-10 138,-16 132,-16"/>
<text text-anchor="middle" x="198" y="-212" style="font-family:Nimbus Roman No9 L;font-weight:regular;font-size:8.91pt;fill:gray;">Library</text>
</g>
<g id="cluster3" class="cluster"><title>cluster_Library\Captcha</title>
<polyline style="fill:none;stroke:gray;" points="140,-70 12,-70 "/>
<path style="fill:none;stroke:gray;" d="M12,-70C6,-70 1.54305e-262,-76 1.54305e-262,-82"/>
<polyline style="fill:none;stroke:gray;" points="1.54305e-262,-82 1.54305e-262,-202.492 "/>
<path style="fill:none;stroke:gray;" d="M1.54305e-262,-202.492C1.54305e-262,-208.492 6,-214.492 12,-214.492"/>
<polyline style="fill:none;stroke:gray;" points="12,-214.492 140,-214.492 "/>
<path style="fill:none;stroke:gray;" d="M140,-214.492C146,-214.492 152,-208.492 152,-202.492"/>
<polyline style="fill:none;stroke:gray;" points="152,-202.492 152,-82 "/>
<path style="fill:none;stroke:gray;" d="M152,-82C152,-76 146,-70 140,-70"/>
<text text-anchor="middle" x="198" y="-183" style="font-family:Nimbus Roman No9 L;font-weight:regular;font-size:8.91pt;fill:gray;">Captcha</text>
</g>
<!-- \\Library\\Captcha\\Response -->
<g id="node3" class="node"><title>\\Library\\Captcha\\Response</title>
<a xlink:href="Captcha.Response.html" xlink:title="Response" target="_parent">
<polygon style="fill:none;stroke:black;" points="231.897,-168 164.103,-168 164.103,-132 231.897,-132 231.897,-168"/>
<text text-anchor="middle" x="198" y="-146" style="font-family:Nimbus Mono L;font-weight:regular;font-size:8.91pt;">Response</text>
</a>
</g>
<!-- \\Library\\Captcha\\Exception -->
<g id="node4" class="node"><title>\\Library\\Captcha\\Exception</title>
<a xlink:href="Captcha.Exception.html" xlink:title="Exception" target="_parent">
<polygon style="fill:none;stroke:black;" points="235.192,-114 160.808,-114 160.808,-78 235.192,-78 235.192,-114"/>
<text text-anchor="middle" x="198" y="-92" style="font-family:Nimbus Mono L;font-weight:regular;font-size:8.91pt;">Exception</text>
</a>
</g>
<!-- \\Exception -->
<g id="node7" class="node"><title>\\Exception</title>
<ellipse style="fill:none;stroke:black;" cx="44" cy="-96" rx="42.9635" ry="18"/>
<text text-anchor="middle" x="44" y="-90" style="font-family:Nimbus Roman No9 L;font-weight:regular;font-size:11.34pt;fill:gray;">\Exception</text>
</g>
<!-- \\Library\\Captcha\\Exception&#45;&gt;\\Exception -->
<g id="edge4" class="edge"><title>\\Library\\Captcha\\Exception&#45;&gt;\\Exception</title>
<path style="fill:none;stroke:black;" d="M160,-96C141,-96 119,-96 98,-96"/>
<polygon style="fill:none;stroke:black;" points="98,-92.5001 88,-96 98,-99.5001 98,-92.5001"/>
</g>
<!-- \\Library\\Captcha -->
<g id="node5" class="node"><title>\\Library\\Captcha</title>
<a xlink:href="Captcha.html" xlink:title="Captcha" target="_parent">
<polygon style="fill:none;stroke:black;" points="229.096,-60 166.904,-60 166.904,-24 229.096,-24 229.096,-60"/>
<text text-anchor="middle" x="198" y="-38" style="font-family:Nimbus Mono L;font-weight:regular;font-size:8.91pt;">Captcha</text>
</a>
</g>
</g>
</svg>
