<?xml version="1.0" encoding="UTF-8" standalone="no"?>
<!DOCTYPE svg PUBLIC "-//W3C//DTD SVG 1.1//EN"
 "http://www.w3.org/Graphics/SVG/1.1/DTD/svg11.dtd">
<!-- Generated by graphviz version 2.26.3 (20100126.1600)
 -->
<!-- Title: G Pages: 1 -->
<svg width="300pt" height="206pt"
 viewBox="0.00 0.00 300.00 206.00" xmlns="http://www.w3.org/2000/svg" xmlns:xlink="http://www.w3.org/1999/xlink">
<g id="graph1" class="graph" transform="scale(1 1) rotate(0) translate(4 202)">
<title>G</title>
<polygon fill="white" stroke="white" points="-4,5 -4,-202 297,-202 297,5 -4,5"/>
<g id="graph2" class="cluster"><title>cluster_Captcha</title>
<polyline fill="none" stroke="gray" points="202,-8 272,-8 "/>
<path fill="none" stroke="gray" d="M272,-8C278,-8 284,-14 284,-20"/>
<polyline fill="none" stroke="gray" points="284,-20 284,-178 "/>
<path fill="none" stroke="gray" d="M284,-178C284,-184 278,-190 272,-190"/>
<polyline fill="none" stroke="gray" points="272,-190 202,-190 "/>
<path fill="none" stroke="gray" d="M202,-190C196,-190 190,-184 190,-178"/>
<polyline fill="none" stroke="gray" points="190,-178 190,-20 "/>
<path fill="none" stroke="gray" d="M190,-20C190,-14 196,-8 202,-8"/>
<text text-anchor="middle" x="237" y="-176.1" font-family="Times Roman,serif" font-size="11.00" fill="gray">Captcha</text>
</g>
<!-- \\Captcha\\Captcha -->
<g id="node2" class="node"><title>\\Captcha\\Captcha</title>
<a xlink:href="Captcha.html" xlink:title="Captcha" target="_parent">
<polygon fill="none" stroke="black" points="269,-160 205,-160 205,-124 269,-124 269,-160"/>
<text text-anchor="middle" x="237" y="-139.1" font-family="Courier,monospace" font-size="11.00">Captcha</text>
</a>
</g>
<!-- \\Captcha\\Exception -->
<g id="node3" class="node"><title>\\Captcha\\Exception</title>
<a xlink:href="Exception.html" xlink:title="Exception" target="_parent">
<polygon fill="none" stroke="black" points="275,-106 199,-106 199,-70 275,-70 275,-106"/>
<text text-anchor="middle" x="237" y="-85.1" font-family="Courier,monospace" font-size="11.00">Exception</text>
</a>
</g>
<!-- \\Exception -->
<g id="node6" class="node"><title>\\Exception</title>
<ellipse fill="none" stroke="black" cx="63" cy="-88" rx="62.9325" ry="18.3848"/>
<text text-anchor="middle" x="63" y="-84.4" font-family="Times Roman,serif" font-size="14.00" fill="gray">\Exception</text>
</g>
<!-- \\Captcha\\Exception&#45;&gt;\\Exception -->
<g id="edge3" class="edge"><title>\\Captcha\\Exception&#45;&gt;\\Exception</title>
<path fill="none" stroke="black" d="M198.384,-88C180.06,-88 157.538,-88 136.16,-88"/>
<polygon fill="none" stroke="black" points="136.11,-84.5001 126.11,-88 136.11,-91.5001 136.11,-84.5001"/>
</g>
<!-- \\Captcha\\Response -->
<g id="node4" class="node"><title>\\Captcha\\Response</title>
<a xlink:href="Response.html" xlink:title="Response" target="_parent">
<polygon fill="none" stroke="black" points="272,-52 202,-52 202,-16 272,-16 272,-52"/>
<text text-anchor="middle" x="237" y="-31.1" font-family="Courier,monospace" font-size="11.00">Response</text>
</a>
</g>
</g>
</svg>
